# xmcd
#
# Track frame offsets: 
#        150
#        15338
#        32195
#        50085
#        75219
#        89782
#        103836
#        122988
#        132237
#        148534
#        162085
#        183380
#        199676
#        211422
#
# Disc length: 2956 seconds
#
# Revision: 0
# Processed by: cddbd v1.5.2PL0 Copyright (c) Steve Scherf et al.
# Submitted via: ExactAudioCopy v1.2
#
DISCID=c10b8a0e
DTITLE=Chris Bell - Real Bluesman
DYEAR=2005
DGENRE=Blues
TTITLE0=Bad News
TTITLE1=Forgive and Forget
TTITLE2=My Cadillac
TTITLE3=Money Doesn't Grow on Trees
TTITLE4=Out There in the Distance
TTITLE5=Travellin' Shoes
TTITLE6=Real Bluesman
TTITLE7=Cool Cat
TTITLE8=It's a Shame
TTITLE9=Blues Highway
TTITLE10=24 Hours a Day
TTITLE11=That Ain't Right
TTITLE12=Get Up!
TTITLE13=Cotton Pickin' Blues
EXTD=
EXTT0=
EXTT1=
EXTT2=
EXTT3=
EXTT4=
EXTT5=
EXTT6=
EXTT7=
EXTT8=
EXTT9=
EXTT10=
EXTT11=
EXTT12=
EXTT13=
PLAYORDER=
